<?xml version="1.0" encoding="UTF-8"?>
<svg version="1.1" xmlns="http://www.w3.org/2000/svg" width="512" height="512">
<path d="M0 0 C0.91297852 0.16628906 1.82595703 0.33257812 2.76660156 0.50390625 C44.3986228 8.16363077 83.16052206 26.40624883 116 53 C116.54446777 53.44005371 117.08893555 53.88010742 117.64990234 54.33349609 C131.72173929 65.81174863 144.93680647 78.57719064 156 93 C156.75925781 93.93070312 157.51851563 94.86140625 158.30078125 95.8203125 C184.1596216 128.07168914 200.62794761 167.52514646 208 208 C208.16371094 208.83563477 208.32742188 209.67126953 208.49609375 210.53222656 C213.78656862 238.24163521 213.41678597 270.35093304 208 298 C207.83371094 298.91297852 207.66742188 299.82595703 207.49609375 300.76660156 C199.83636923 342.3986228 181.59375117 381.16052206 155 414 C154.55994629 414.54446777 154.11989258 415.08893555 153.66650391 415.64990234 C142.18825137 429.72173929 129.42280936 442.93680647 115 454 C114.06929688 454.75925781 113.13859375 455.51851563 112.1796875 456.30078125 C79.92831086 482.1596216 40.47485354 498.62794761 0 506 C-0.83563477 506.16371094 -1.67126953 506.32742188 -2.53222656 506.49609375 C-30.24163521 511.78656862 -62.35093304 511.41678597 -90 506 C-90.91297852 505.83371094 -91.82595703 505.66742188 -92.76660156 505.49609375 C-134.3986228 497.83636923 -173.16052206 479.59375117 -206 453 C-206.54446777 452.55994629 -207.08893555 452.11989258 -207.64990234 451.66650391 C-221.72173929 440.18825137 -234.93680647 427.42280936 -246 413 C-246.75925781 412.06929688 -247.51851562 411.13859375 -248.30078125 410.1796875 C-274.1596216 377.92831086 -290.62794761 338.47485354 -298 298 C-298.16371094 297.16436523 -298.32742188 296.32873047 -298.49609375 295.46777344 C-303.78656862 267.75836479 -303.41678597 235.64906696 -298 208 C-297.83371094 207.08702148 -297.66742188 206.17404297 -297.49609375 205.23339844 C-289.83636923 163.6013772 -271.59375117 124.83947794 -245 92 C-244.55994629 91.45553223 -244.11989258 90.91106445 -243.66650391 90.35009766 C-232.18825137 76.27826071 -219.42280936 63.06319353 -205 52 C-204.06929688 51.24074219 -203.13859375 50.48148438 -202.1796875 49.69921875 C-169.92831086 23.8403784 -130.47485354 7.37205239 -90 0 C-89.16436523 -0.16371094 -88.32873047 -0.32742188 -87.46777344 -0.49609375 C-59.75836479 -5.78656862 -27.64906696 -5.41678597 0 0 Z M-182 78 C-182.98871094 78.78375 -183.97742188 79.5675 -184.99609375 80.375 C-199.58125286 92.19856742 -213.08925147 105.700295 -224 121 C-224.46003418 121.63212402 -224.92006836 122.26424805 -225.39404297 122.91552734 C-258.92980171 169.36272309 -273.72887624 227.98544089 -265.47875977 284.79077148 C-259.16485951 323.35177924 -244.42336962 359.34702089 -220 390 C-219.21625 390.98871094 -218.4325 391.97742188 -217.625 392.99609375 C-205.80143258 407.58125286 -192.299705 421.08925147 -177 432 C-176.05181396 432.69005127 -176.05181396 432.69005127 -175.08447266 433.39404297 C-128.63727691 466.92980171 -70.01455911 481.72887624 -13.20922852 473.47875977 C25.35177924 467.16485951 61.34702089 452.42336962 92 428 C93.48306641 426.824375 93.48306641 426.824375 94.99609375 425.625 C109.58125286 413.80143258 123.08925147 400.299705 134 385 C134.46003418 384.36787598 134.92006836 383.73575195 135.39404297 383.08447266 C168.92980171 336.63727691 183.72887624 278.01455911 175.47875977 221.20922852 C169.16485951 182.64822076 154.42336962 146.65297911 130 116 C128.824375 114.51693359 128.824375 114.51693359 127.625 113.00390625 C115.80143258 98.41874714 102.299705 84.91074853 87 74 C86.36787598 73.53996582 85.73575195 73.07993164 85.08447266 72.60595703 C5.73971649 15.31753396 -105.21168612 16.81738652 -182 78 Z " fill="#000000" transform="translate(301,3)"/>
<path d="M0 0 C1.17755859 1.09828125 1.17755859 1.09828125 2.37890625 2.21875 C8.55268545 8.15226368 17.16697519 16.44398656 18.30078125 25.3671875 C18.32552725 30.66283072 18.12787238 34.51671625 15 39 C10.82064218 43.20219585 7.19253266 45.13717683 1.25 45.3125 C0.02023437 45.36857422 0.02023437 45.36857422 -1.234375 45.42578125 C-8.1752123 44.35720602 -12.26023534 40.07140744 -16.375 34.8125 C-17.33199338 33.64496481 -18.29165228 32.4796096 -19.25390625 31.31640625 C-19.72070801 30.74937988 -20.18750977 30.18235352 -20.66845703 29.59814453 C-31.2667238 16.87789256 -44.5050403 9.22076396 -60 4 C-60.98742187 3.6596875 -61.97484375 3.319375 -62.9921875 2.96875 C-84.48733179 -3.18901017 -108.39543051 1.05185152 -127.76171875 11.48828125 C-148.47616619 23.86966995 -162.8669197 44.06499124 -168.8125 67.375 C-173.49251846 91.71647534 -168.52070904 114.78130042 -154.9140625 135.37109375 C-144.57919403 149.56571922 -131.2354957 160.15009197 -114.8125 166.375 C-113.86987305 166.73283569 -113.86987305 166.73283569 -112.90820312 167.09790039 C-91.70529339 174.68172294 -68.14261777 172.4216782 -47.8046875 163.41015625 C-42.94733198 160.96794825 -38.45668964 158.10556654 -34 155 C-33.21753906 154.46632813 -32.43507813 153.93265625 -31.62890625 153.3828125 C-24.4583938 148.18822982 -19.29817413 141.49199176 -14.08984375 134.3984375 C-8.24676334 126.51348942 -8.24676334 126.51348942 -3 125 C2.1856995 124.38621463 7.17293677 124.18021839 11.9375 126.5625 C16.57349052 130.25237001 18.36769639 133.72370699 19.9375 139.375 C20.13591133 150.88285691 12.18167525 159.41490713 4.7421875 167.43359375 C2.86014748 169.32636784 0.94146488 171.16859549 -1 173 C-1.78375 173.825 -2.5675 174.65 -3.375 175.5 C-26.89518498 197.90017618 -58.0962029 207.02840438 -90 207 C-122.46684869 206.18178305 -152.74178681 190.5861165 -174.98046875 167.390625 C-196.05868872 144.406071 -206.95166371 112.51571966 -205.91845703 81.55664062 C-204.62635414 57.53204619 -197.48661201 34.39152789 -183 15 C-182.38640625 14.1646875 -181.7728125 13.329375 -181.140625 12.46875 C-161.24250863 -13.51391436 -133.1110592 -28.77514969 -101 -34 C-100.13761719 -34.144375 -99.27523437 -34.28875 -98.38671875 -34.4375 C-61.73219182 -39.11431364 -26.35066349 -24.94130871 0 0 Z " fill="#000000" transform="translate(349,170)"/>
</svg>
