<svg xmlns="http://www.w3.org/2000/svg" xmlns:xlink="http://www.w3.org/1999/xlink" version="1.1" id="Layer_1" x="0px" y="0px" style="enable-background:new 0 0 200 52;" xml:space="preserve" viewBox="0 0.8 116.9 50.6"> <style type="text/css"> .st-class0{fill:#FFFFFF;} .st-class1{fill-rule:evenodd;clip-rule:evenodd;fill:#1D1D1B;} .st-class2{fill:#1D1D1B;} .st-class3{fill:none;stroke:#FFFFFF;stroke-width:2.5056;stroke-miterlimit:3.86;} </style> <path class="st-class0" d="M57.9,48.9c-0.2,0-0.3,0-0.5,0C32.4,48.6,11.7,28.3,11,3.3h93.8C104.1,28.6,83.3,48.9,57.9,48.9z"/> <title>logo</title> <g id="Layer_2_1_"> <g id="Layer_1-2"> <path class="st-class1" d="M20.9,8.3L21,8.8c0.2,1.3-0.4,2.4-1.9,2.6c-1.5,0.2-2.4-0.7-2.6-1.9L16.5,9 M14.5,7.2l0.5,2.9 c0.3,2.2,2.4,3.7,4.6,3.3c2.2-0.3,3.7-2.4,3.3-4.6l-0.5-2.9L14.5,7.2z"/> <path class="st-class1" d="M25,20.7c0.6,1,0.2,2.4-0.8,3c-1.1,0.6-2.5,0.3-3.1-0.8c-0.6-1.1-0.3-2.5,0.8-3.1c0.1,0,0.1-0.1,0.2-0.1 C23.2,19.2,24.4,19.6,25,20.7 M26.8,19.7c-1.1-2-3.6-3.1-5.7-2c-2.1,1.2-2.9,3.9-1.7,6c1.2,2,3.7,2.8,5.8,1.8 C27.3,24.4,27.9,21.8,26.8,19.7L26.8,19.7z"/> <polyline class="st-class2" points="25.1,32.3 26.7,33.6 30.3,30.7 30.3,30.7 28.6,35.3 29.2,35.9 33.7,33.7 33.7,33.8 31,37.6 32.6,39 37,32.2 35.5,30.8 31.4,32.9 33,28.6 31.5,27.2 "/> <polyline class="st-class2" points="44.6,38 45.3,36.4 41.1,34.5 37.9,41.8 42,43.7 42.8,42.1 40.5,41.1 41.1,39.8 43.2,40.8 43.9,39.2 41.8,38.2 42.3,37 "/> <polyline class="st-class2" points="50.6,41.2 50.6,41.2 51,37.9 49,37.7 47.9,45.6 49.9,45.9 50.4,42.4 50.4,42.4 52.6,46.2 55.3,46.6 52.4,42 56.1,38.7 53.5,38.3 "/> <polyline class="st-class2" points="61.6,38.3 59.5,38.5 60.5,46.4 65,45.9 64.8,44.1 62.3,44.4 "/> <polyline class="st-class2" points="72.1,37.4 71.5,35.8 67.2,37.3 69.8,44.8 74.1,43.3 73.5,41.7 71.2,42.5 70.8,41.2 73,40.4 72.4,38.7 70.2,39.5 69.7,38.2 "/> <polyline class="st-class2" points="79.7,33 78.8,31.6 74.9,34 79.3,40.7 83.1,38.3 82.2,36.8 80.1,38.1 79.3,37 81.3,35.7 80.3,34.2 78.4,35.5 77.6,34.4 "/> <polyline class="st-class2" points="88,34.3 89.3,32.7 85.5,29.5 85.6,29.5 91.7,29.8 93.1,28.2 87,23 85.6,24.6 89.4,27.8 89.4,27.8 83.2,27.6 81.8,29.1 "/> <polyline class="st-class2" points="92.4,16.1 90.8,15.4 88.9,19.6 96.2,22.8 98.1,18.7 96.4,18 95.4,20.2 94.2,19.7 95.1,17.5 93.5,16.8 92.6,18.9 91.4,18.4 "/> <path class="st-class1" d="M93.8,9.9l0-0.2c0.1-0.7,0.3-1.4,1.2-1.3c0.9,0.1,0.9,0.9,0.8,1.6l0,0.2 M97.2,8.4c0-1.1-0.9-2-2-2.1 c-1.7-0.3-2.6,0.8-2.9,2.4l-0.5,3.1l7.9,1.3l0.3-2.1l-3-0.5v-0.1l3.3-1.5l0.4-2.6L97.2,8.4z"/> <path class="st-class2" d="M90.8,2v0.1c0.2,18.3-14.5,33.4-32.8,33.6C39.7,35.9,24.7,21.2,24.5,2.9c0-0.3,0-0.5,0-0.8"/> <path class="st-class2" d="M50.8,19.9c0-3.8,3.1-6.9,6.9-6.9c3.8,0,6.9,3.1,6.9,6.9c0,3.8-3.1,6.9-6.9,6.9c0,0,0,0,0,0 C53.9,26.8,50.8,23.7,50.8,19.9L50.8,19.9"/> <circle class="st-class3" cx="57.7" cy="19.9" r="6.9"/> <path class="st-class2" d="M116.9,0.8H0v2.5h8.5C8.8,16,13.9,27.9,22.9,36.9c9.2,9.2,21.5,14.4,34.5,14.5c0.2,0,0.3,0,0.5,0 c26.7,0,48.7-21.4,49.4-48.1h9.6V0.8z M57.9,48.9c-0.2,0-0.3,0-0.5,0C32.4,48.6,11.7,28.3,11,3.3h93.8 C104.1,28.6,83.3,48.9,57.9,48.9z"/> </g> </g> </svg>