<?xml version="1.0" encoding="UTF-8"?> <svg xmlns="http://www.w3.org/2000/svg" xmlns:xlink="http://www.w3.org/1999/xlink" version="1.1" id="Layer_1" x="0px" y="0px" viewBox="0 0 216.3 54.7" style="enable-background:new 0 0 216.3 54.7;" xml:space="preserve"> <style type="text/css"> .st0{fill:#FD249C;} .st1{fill:#C9CDD3;} .st2{display:none;} .st3{display:inline;} .st4{fill:none;} .st5{fill:none;stroke:#993366;stroke-width:188.4675;stroke-miterlimit:3;} .st6{fill:none;stroke:#FD249C;stroke-width:188.4675;stroke-linecap:square;stroke-dasharray:376.9351;} .st7{fill:none;stroke:#000000;stroke-width:188.4675;stroke-linecap:square;} .st8{fill:none;stroke:#000000;stroke-width:188.4675;} .st9{fill:none;stroke:#FD249C;stroke-width:188.4675;} .st10{fill:none;stroke:#FD249C;stroke-width:188.4675;stroke-linejoin:bevel;} .st11{fill:none;stroke:#FD249C;stroke-width:188.4675;stroke-linecap:square;} .st12{fill:none;stroke:#000000;stroke-width:188.4675;stroke-miterlimit:1;} .st13{fill:none;stroke:#660033;stroke-width:188.4675;stroke-linecap:round;stroke-linejoin:round;stroke-miterlimit:3;} .st14{fill:#FFFFFF;stroke:#000000;stroke-width:1.9305;} .st15{fill:#FFFFFF;stroke:#000000;} .st16{fill:none;stroke:#000000;} .st17{fill:#FFFFFF;} .st18{display:inline;fill:none;} .st19{display:inline;fill:#FD249C;} .st20{clip-path:url(#SVGID_00000008851926203461950650000001612977716876016277_);} </style> <symbol id="_x33_.0_Curved_logo" viewBox="-6320.7 -1285.6 12641.4 2571.2"> <g> <path class="st0" d="M1797.8,472.8h-188.1c0-0.2,0-0.4,0-0.5c-0.1-86.6-33.9-168-95.1-229.2c-61.4-61.4-142.9-95.2-229.7-95.2 V-40.6c69.3,0,136.5,13.6,199.9,40.4c61.1,25.9,116,62.9,163.1,110s84.1,102,110,163.2c26.8,63.4,40.4,130.6,40.4,199.9 L1797.8,472.8L1797.8,472.8z"></path> <path class="st0" d="M-2925.2,945.8c-45.3-19.2-87.2-44.5-125.1-75.5v226.8v94.2c0,52-42.2,94.2-94.2,94.2h-94.2l0,0v-94.2l0,0 l0,0v-94.2V709V472.8h188.5c0,86.8,33.8,168.3,95.2,229.7s143,95.2,229.8,95.2v188.5C-2794.6,986.2-2861.9,972.6-2925.2,945.8z"></path> <path class="st0" d="M1703.9,1285.6h-94.2l0,0v-94.2l0,0v-94.2l0,0V870.3c13.2-10.8,25.9-22.3,38.1-34.5 c20.7-20.7,39.4-42.9,56.1-66.4c16.6,23.4,35.2,45.4,55.7,65.9c12.3,12.3,25.2,23.9,38.5,34.8v227v77.7v16.6 C1798.2,1243.4,1756,1285.6,1703.9,1285.6z"></path> <path class="st0" d="M5071.2,1112.8H4977l0,0v-94.2l0,0v-94.2h94.2h94.2v94.2C5165.5,1070.6,5123.3,1112.8,5071.2,1112.8z"></path> <path class="st0" d="M-1615.5,986.2c-31.9,0-63.4-2.9-94.2-8.6c-36.1-6.7-71.5-17.3-105.6-31.8c-61.1-25.9-116-62.9-163.1-110 s-84.1-102-109.9-163.1c-26.8-63.3-40.4-130.6-40.4-199.8V-40.2h188.5v513.1c0,86.8,33.8,168.3,95.1,229.7 c61.4,61.4,142.9,95.2,229.7,95.2h94.2V892C-1521.3,944-1563.5,986.2-1615.5,986.2z"></path> <g> <g> <path class="st1" d="M-2252.4,672.6c-25.9,61.1-62.9,116-110,163.1s-102,84.1-163.1,110c-63.4,26.8-130.6,40.4-199.9,40.4V797.7 c86.8,0,168.4-33.8,229.7-95.2c61.4-61.4,95.1-142.9,95.1-229.7s-33.8-168.4-95.1-229.8c-61.4-61.4-142.9-95.2-229.7-95.2 s-168.4,33.8-229.8,95.2c-61.4,61.4-95.2,143-95.2,229.8h-188.5c0-86.8-33.8-168.4-95.2-229.8s-143-95.2-229.8-95.2 s-168.4,33.8-229.8,95.2c-61.4,61.4-95.2,143-95.2,229.8v237.8v94.2c0,52-42.2,94.2-94.2,94.2h-94.2l0,0l0,0v-94.2v-94.2l0,0 V472.8c0-69.3,13.6-136.5,40.4-199.9c25.9-61.1,62.9-116,110-163.2c47.1-47.1,102-84.1,163.2-110 c63.4-26.8,130.6-40.4,199.9-40.4s136.5,13.6,199.9,40.4c61.1,25.9,116,62.9,163.2,110c20.7,20.7,39.4,42.9,56.1,66.4 c16.7-23.6,35.4-45.8,56.1-66.4c47.1-47.1,102-84.1,163.2-110c63.4-26.8,130.6-40.4,199.9-40.4c69.3,0,136.5,13.6,199.9,40.4 c61.1,25.9,116,62.9,163.1,110s84.1,102,110,163.2c26.8,63.4,40.4,130.6,40.4,199.9C-2212,542.1-2225.6,609.3-2252.4,672.6z"></path> <path class="st1" d="M4740,1285.6h-94.2l0,0v-94.2l0,0v-94.2l0,0V870.3c-37.8,31-79.7,56.3-125,75.5 c-63.4,26.8-130.6,40.4-199.9,40.4s-136.5-13.6-199.8-40.4c-61.1-25.9-116-62.9-163.1-110s-84.1-102-110-163.1 c-26.8-63.3-40.4-130.6-40.4-199.8c0-69.3,13.6-136.5,40.4-199.9c25.9-61.1,62.9-116,110-163.2c47.1-47.1,102-84.1,163.1-110 c63.4-26.8,130.6-40.4,199.8-40.4c69.3,0,136.5,13.6,199.9,40.4c61.1,25.9,116,62.9,163.1,110c47.1,47.1,84.1,102,110,163.2 c24.7,58.4,38.1,120.1,40.1,183.6c0.2,5.4,0.3,10.8,0.3,16.2v624.3v45v49.3C4834.2,1243.4,4792,1285.6,4740,1285.6z M4320.9,147.9c-86.8,0-168.4,33.8-229.7,95.2c-61.4,61.4-95.2,143-95.2,229.8s33.8,168.3,95.2,229.7s143,95.2,229.7,95.2 c86.8,0,168.4-33.8,229.7-95.2c61.4-61.4,95.1-142.9,95.1-229.7s-33.8-168.4-95.1-229.8C4489.2,181.7,4407.7,147.9,4320.9,147.9 z"></path> <g> <path class="st1" d="M6313.8,474.8c-0.3,68.5-13.8,135.1-40.4,197.8c-25.9,61.1-62.9,116-110,163.1 c-47.1,47.1-102,84.1-163.1,110c-63.4,26.8-130.6,40.4-199.9,40.4s-136.5-13.6-199.9-40.4c-61.1-25.9-116-62.9-163.2-110 c-47.1-47.1-84.1-102-110-163.1c-26.8-63.3-40.4-130.6-40.4-199.8c0-69.3,13.6-136.5,40.4-199.9c25.9-61.1,62.9-116,110-163.2 c47.1-47.1,102-84.1,163.2-110c63.4-26.8,130.6-40.4,199.9-40.4h256.5h169.6c52,0,94.2,42.2,94.2,94.2v94.2v156.8L6313.8,474.8 z M6057,147.9h-256.5c-86.8,0-168.4,33.8-229.8,95.2c-61.4,61.4-95.2,143-95.2,229.8s33.8,168.3,95.2,229.7 c61.4,61.4,143,95.2,229.8,95.2s168.4-33.8,229.7-95.2c61.4-61.4,95.1-142.9,95.1-229.7V471l6.9-170.1v-153H6057z"></path> </g> <path class="st1" d="M2595.7,672.1c-25.9,61.1-62.9,116-110,163.1s-102,84.1-163.1,110c-63.4,26.8-130.6,40.4-199.9,40.4 c-69.3,0-136.5-13.6-199.9-40.4c-45.2-19.1-86.9-44.3-124.7-75.1c-13.3-10.9-26.2-22.5-38.5-34.8 c-20.5-20.5-39.1-42.5-55.7-65.9c-16.7,23.5-35.4,45.7-56.1,66.4c-12.2,12.2-24.9,23.7-38.1,34.5c-37.8,31-79.7,56.3-125,75.5 c-63.4,26.8-130.6,40.4-199.9,40.4s-136.5-13.6-199.9-40.4c-61.1-25.9-116-62.9-163.2-110c-47.1-47.1-84.1-102-110-163.1 c-26.8-63.3-40.4-130.6-40.4-199.8c0-69.3,13.6-136.5,40.4-199.9c25.9-61.1,62.9-116,110-163.2c47.1-47.1,102-84.1,163.2-110 c63.4-26.8,130.6-40.4,199.9-40.4v188.5c-86.8,0-168.4,33.8-229.8,95.2s-95.2,143-95.2,229.8s33.8,168.3,95.2,229.7 s143,95.2,229.8,95.2s168.4-33.8,229.7-95.2c58.6-58.6,92-135.6,94.9-217.9c0.1,2.5,0.1,5.1,0.2,7.6v-19.4h188.1 c0,3.9,0.1,7.8,0.2,11.6c0,1.2,0.1,2.5,0.1,3.7c3.9,80.8,37.2,156.3,94.8,213.9c61.4,61.4,143,95.2,229.8,95.2 c86.8,0,168.4-33.8,229.7-95.2c61.4-61.4,95.1-142.9,95.1-229.7V148.2l0,0V54c0-52,42.2-94.2,94.2-94.2h94.2l0,0V54l0,0v24.1 v70.1v324.1C2636.1,541.6,2622.5,608.8,2595.7,672.1z"></path> <path class="st1" d="M631.2,651.2c-25.9,61.1-62.9,116-110,163.2c-47.1,47.1-102,84.1-163.1,110 c-63.4,26.8-130.6,40.4-199.9,40.4S21.7,951.2-41.7,924.4c-61.1-25.9-116-62.9-163.1-110s-84.1-102-110-163.2 c-26.8-63.4-40.4-130.6-40.4-199.9V148.2V87.8V54c0-52,42.2-94.2,94.2-94.2h94.2l0,0V54l0,0v33.8v60.4v303.1 c0,86.8,33.8,168.4,95.2,229.8s142.9,95.2,229.7,95.2s168.4-33.8,229.7-95.2c61.4-61.4,95.2-143,95.2-229.8V216.1l0,0V53.7 c0-52,42.2-94.2,94.2-94.2h94.2l0,0v94.2l0,0v145.1v17.3v235.2C671.6,520.6,658,587.8,631.2,651.2z"></path> <path class="st1" d="M5165.5,223.2v551.2V811H4977v-36.6V223.2v-15.1V53.7c0-52,42.2-94.2,94.2-94.2h94.2l0,0v94.2l0,0 L5165.5,223.2L5165.5,223.2z"></path> <path class="st1" d="M-5334.1,672.6c-25.9,61.1-62.9,116-110,163.1c-47.1,47.1-102,84.1-163.2,110 c-63.4,26.8-130.6,40.4-199.9,40.4s-136.5-13.6-199.9-40.4c-61.1-25.9-116-62.9-163.2-110c-47.1-47.1-84.1-102-110-163.1 c-26.8-63.3-40.4-130.6-40.4-199.8V147.9V96.7v-43c0-52,42.2-94.2,94.2-94.2h94.2l0,0v94.2l0,0v94.2l0,0v324.9 c0,86.8,33.8,168.3,95.2,229.7c61.4,61.4,143,95.2,229.8,95.2s168.4-33.8,229.8-95.2c61.4-61.4,95.2-143,95.2-229.7V147.9v-21.3 V53.7c0-52,42.2-94.2,94.2-94.2h94.2l0,0v94.2l0,0v72.9v21.3v324.9C-5293.7,542.1-5307.3,609.3-5334.1,672.6z"></path> <g> <path class="st1" d="M2919.3,378.6L2919.3,378.6c-3,10-5.5,20.1-7.6,30.4C2913.8,398.7,2916.3,388.6,2919.3,378.6z"></path> </g> <path class="st1" d="M-483,474.8c-0.3,68.5-13.8,135.1-40.4,197.8c-25.9,61.1-62.9,116-110,163.1s-102,84.1-163.1,110 c-63.4,26.8-130.6,40.4-199.9,40.4s-136.5-13.6-199.9-40.4c-61.1-25.9-116-62.9-163.2-110c-47.1-47.1-84.1-102-110-163.1 c-26.8-63.3-40.4-130.6-40.4-199.8c0-69.3,13.6-136.5,40.4-199.9c25.9-61.1,62.9-116,110-163.2c47.1-47.1,102-84.1,163.2-110 c63.4-26.8,130.6-40.4,199.9-40.4h256.5h169.6c52,0,94.2,42.2,94.2,94.2v94.2v156.8L-483,474.8z M-739.8,147.9h-256.5 c-86.8,0-168.4,33.8-229.8,95.2s-95.2,143-95.2,229.8s33.8,168.3,95.2,229.7c61.4,61.4,143,95.2,229.8,95.2 s168.4-33.8,229.7-95.2c61.4-61.4,95.1-142.9,95.1-229.7V471l6.9-170.1v-153H-739.8z"></path> </g> <path class="st1" d="M-4323.8,832.1c-89.1,99.4-213.7,154.1-350.9,154.1c-69.3,0-136.5-13.6-199.8-40.4 c-61.1-25.9-116-62.9-163.1-110c-47.1-47.1-84.1-102-110-163.1c-26.8-63.4-40.4-130.6-40.4-199.8v-0.1 c0-69.2,13.6-136.4,40.4-199.7c25.9-61.1,62.9-116,110-163.1c47.1-47.1,102-84.1,163.1-110c63.4-26.8,130.6-40.4,199.8-40.4 c142.2,0,269.9,58.3,359.6,164.1c33.6,39.7,28.7,99.2-11,132.8s-99.2,28.7-132.8-11c-26-30.7-57.1-54.6-92.5-71.2 c-37.4-17.5-78.9-26.3-123.3-26.3c-86.8,0-168.3,33.8-229.7,95.2c-38.5,38.5-66.1,84.9-81.3,135.5h698.8 c52,0,94.2,42.2,94.2,94.2C-4192.7,610.2-4239.2,737.7-4323.8,832.1z M-4985.7,567.1c15.3,50.6,42.9,97,81.4,135.5 c61.4,61.4,142.9,95.2,229.7,95.2c84.1,0,156.9-31.6,210.6-91.5c34.3-38.2,58.7-86,71.8-139.2H-4985.7L-4985.7,567.1z"></path> <path class="st1" d="M3581.3,832.1c-89.1,99.4-213.7,154.1-350.9,154.1c-69.3,0-136.5-13.6-199.8-40.4 c-61.1-25.9-116-62.9-163.1-110s-84.1-102-110-163.1c-26.8-63.4-40.4-130.6-40.4-199.8v-0.1c0-69.2,13.6-136.4,40.4-199.7 c25.9-61.1,62.9-116,110-163.1s102-84.1,163.1-110c63.4-26.8,130.6-40.4,199.8-40.4c142.2,0,269.9,58.3,359.6,164.1 c33.6,39.7,28.7,99.2-11,132.8s-99.2,28.7-132.8-11c-26-30.7-57.1-54.6-92.5-71.2c-37.4-17.5-78.9-26.3-123.3-26.3 c-86.8,0-168.3,33.8-229.7,95.2c-38.4,38.5-66.1,84.9-81.3,135.5h698.7c52,0,94.2,42.2,94.2,94.2 C3712.4,610.2,3665.8,737.7,3581.3,832.1z M2919.3,567.1c15.3,50.6,42.9,97,81.4,135.5c61.4,61.4,142.9,95.2,229.7,95.2 c84.1,0,156.9-31.6,210.6-91.5c34.3-38.2,58.7-86,71.8-139.2H2919.3L2919.3,567.1z"></path> </g> </g> <g id="nbm-logo_x5F_2.0_2_00000168105635591893452060000009138783624370048151_"> <g> <g> <path class="st1" d="M-3646.9-766.4h61.1v-53.8h1.5c1.5,4.8,5.2,10.9,11.3,18.2s13.8,14.2,23.3,20.7 c9.4,6.5,20.6,12.1,33.4,16.7c12.8,4.6,27,6.9,42.5,6.9c25.7,0,47.3-5.3,64.7-16s31.7-26.7,42.9-48c11.1,21.3,26.9,37.3,47.3,48 c20.4,10.7,41,16,61.8,16c26.7,0,48.5-4.4,65.4-13.1c17-8.7,30.3-20.2,40-34.5s16.4-30.5,20-48.7s5.5-37,5.5-56.4v-200.7h-65.4 v191.9c0,13.1-0.9,25.7-2.5,37.8c-1.7,12.1-5.2,22.8-10.5,32s-12.9,16.6-22.5,22.2c-9.7,5.6-22.5,8.4-38.5,8.4 c-31.5,0-54.1-9.7-67.6-29.1c-13.6-19.4-20.4-44.4-20.4-74.9v-188.3h-65.4v180.3c0,16.5-0.9,31.5-2.5,45.1 c-1.7,13.6-5.1,25.3-10.2,35.3c-5.1,9.9-12.4,17.7-21.8,23.3c-9.4,5.6-22.2,8.4-38.2,8.4c-11.6,0-22.9-2.3-33.8-6.9 c-10.9-4.6-20.5-11.5-28.7-20.7s-14.8-21-19.6-35.3c-4.9-14.3-7.3-31.2-7.3-50.5V-1111h-65.4L-3646.9-766.4L-3646.9-766.4 L-3646.9-766.4z"></path> <path class="st1" d="M-3008.5-808.6c18.4,17,39.7,29.7,64,38.2c24.2,8.5,48.5,12.7,72.7,12.7c25.2,0,46.9-3.2,65.1-9.5 c18.2-6.3,33.1-14.8,44.7-25.4c11.6-10.7,20.2-22.9,25.8-36.7s8.4-28.2,8.4-43.3v-176c0-12.1,0.2-23.3,0.7-33.4 c0.5-10.2,1.2-19.9,2.2-29.1h-58.2c-1.5,17.4-2.2,34.9-2.2,52.3h-1.5c-14.5-22.3-31.8-38.1-51.6-47.3 c-19.9-9.2-42.9-13.8-69.1-13.8c-16,0-31.3,2.2-45.8,6.5c-14.5,4.4-27.3,10.9-38.2,19.6s-19.5,19.5-25.8,32.4 c-6.3,12.8-9.4,27.7-9.4,44.7c0,22.3,5,41,14.9,56s23.5,27.3,40.7,36.7c17.2,9.5,37.3,16.2,60.4,20.4c23,4.1,47.6,6.2,73.8,6.2 h48v14.5c0,8.7-1.7,17.4-5.1,26.2c-3.4,8.7-8.5,16.6-15.3,23.6s-15.3,12.6-25.4,16.7c-10.2,4.1-22.3,6.2-36.4,6.2 c-12.6,0-23.6-1.2-33.1-3.6c-9.5-2.4-18.1-5.5-25.8-9.1c-7.8-3.6-14.8-7.9-21.1-12.7c-6.3-4.9-12.4-9.5-18.2-13.8L-3008.5-808.6 z M-2823.8-945.3c-15.5,0-31.4-0.9-47.6-2.5c-16.2-1.7-31-5-44.4-9.8c-13.3-4.9-24.2-11.6-32.7-20.4 c-8.5-8.7-12.7-19.9-12.7-33.4c0-19.9,6.7-34.2,20-42.9s31.4-13.1,54.2-13.1c17.9,0,33.2,3,45.8,9.1 c12.6,6.1,22.8,13.9,30.5,23.6s13.3,20.5,16.7,32.4s5.1,23.6,5.1,35.3v21.8L-2823.8-945.3L-2823.8-945.3L-2823.8-945.3z"></path> <path class="st1" d="M-2615.1-561.4h65.4v-354.8l148.3,149.1h90.9l-160.7-156.3l174.5-187.6h-93.1l-160,178.9V-1111h-65.4v549.6 H-2615.1z"></path> <path class="st1" d="M-2230.5-642.8c0,13.1,4.7,24.4,14.2,33.8c9.4,9.5,20.7,14.2,33.8,14.2s24.4-4.7,33.8-14.2 c9.4-9.5,14.2-20.7,14.2-33.8s-4.7-24.4-14.2-33.8c-9.4-9.5-20.7-14.2-33.8-14.2s-24.4,4.7-33.8,14.2 C-2225.8-667.2-2230.5-655.9-2230.5-642.8z M-2215.2-766.4h65.4V-1111h-65.4V-766.4z"></path> <path class="st1" d="M-2028.4-766.4h65.4v-53.1h1.5c8.2,18.4,22.5,33.3,42.9,44.7s43.9,17.1,70.5,17.1c16.5,0,32.4-2.5,47.6-7.6 c15.3-5.1,28.6-13,40-23.6c11.4-10.7,20.5-24.4,27.3-41.1c6.8-16.7,10.2-36.5,10.2-59.3v-221.8h-65.4v203.6 c0,16-2.2,29.7-6.5,41.1c-4.4,11.4-10.2,20.6-17.4,27.6c-7.3,7-15.6,12.1-25.1,15.3c-9.5,3.1-19.3,4.7-29.4,4.7 c-13.6,0-26.2-2.2-37.8-6.5c-11.6-4.4-21.8-11.3-30.5-20.7c-8.7-9.5-15.5-21.4-20.4-36c-4.9-14.5-7.3-31.8-7.3-51.6V-1111h-65.4 L-2028.4-766.4L-2028.4-766.4z"></path> <path class="st1" d="M-1261.3-1108.2c0-26.2-4.5-50-13.5-71.6c-9-21.6-21.7-40.2-38.2-56c-16.5-15.7-36.4-28-59.6-36.7 c-23.3-8.7-49-13.1-77.1-13.1c-33,0-63.1,4.6-90.5,13.8c-27.4,9.2-53.4,25.2-78.2,48l44.4,55.3c17-18.4,35.4-32.4,55.3-41.8 c19.9-9.5,42.4-14.2,67.6-14.2c24.2,0,44.4,3.5,60.4,10.5s28.7,16.1,38.2,27.3c9.5,11.2,16.1,23.9,20,38.2s5.8,28.7,5.8,43.3 v50.9h-2.2c-12.6-20.8-29.7-36.2-51.3-46.2c-21.6-9.9-44.2-14.9-68-14.9c-25.2,0-48.6,4.5-70.2,13.5s-40.1,21.3-55.6,37.1 c-15.5,15.7-27.6,34.4-36.4,56c-8.7,21.6-13.1,45-13.1,70.2s4.1,48.8,12.4,70.9c8.2,22.1,20,41.3,35.3,57.8s33.7,29.3,55.3,38.5 c21.6,9.2,45.7,13.8,72.3,13.8c23.3,0,45.9-5.1,68-15.3s39.4-24.5,52-42.9h1.5v49.4h65.4L-1261.3-1108.2L-1261.3-1108.2z M-1440.2-818.8c-17.4,0-33.2-3-47.3-9.1c-14.1-6.1-25.9-14.3-35.6-24.7s-17.2-23-22.5-37.8s-8-30.9-8-48.4 c0-34.9,10.2-62.9,30.5-84c20.4-21.1,48-31.6,82.9-31.6s62.5,10.5,82.9,31.6c20.4,21.1,30.5,49.1,30.5,84 c0,17.4-2.7,33.6-8,48.4c-5.3,14.8-12.8,27.4-22.5,37.8c-9.7,10.4-21.6,18.7-35.6,24.7C-1407-821.8-1422.7-818.8-1440.2-818.8z"></path> <path class="st1" d="M-925.4-561.4h65.4v-254.5h1.5c11.6,17.9,28.4,32.1,50.2,42.5s45.1,15.6,69.8,15.6 c26.7,0,50.8-4.6,72.3-13.8c21.6-9.2,40-21.9,55.3-38.2c15.3-16.2,27-35.4,35.3-57.4c8.2-22.1,12.4-45.9,12.4-71.6 c0-25.7-4.1-49.4-12.4-71.3c-8.2-21.8-20-41-35.3-57.4c-15.3-16.5-33.7-29.3-55.3-38.5s-45.7-13.8-72.3-13.8 c-23.3,0-45.9,5.1-68,15.3c-22.1,10.2-39.4,24.5-52,42.9h-1.5v-49.4h-65.4V-561.4L-925.4-561.4L-925.4-561.4L-925.4-561.4z M-746.6-1058.7c17.5,0,33.2,3,47.3,9.1c14.1,6.1,25.9,14.3,35.6,24.7c9.7,10.4,17.2,23,22.5,37.8s8,30.9,8,48.4 c0,17.4-2.7,33.6-8,48.4c-5.3,14.8-12.9,27.4-22.5,37.8c-9.7,10.4-21.6,18.7-35.6,24.7c-14.1,6.1-29.8,9.1-47.3,9.1 c-17.4,0-33.2-3-47.3-9.1s-25.9-14.3-35.6-24.7c-9.7-10.4-17.2-23-22.5-37.8s-8-30.9-8-48.4s2.7-33.6,8-48.4 c5.3-14.8,12.8-27.4,22.5-37.8c9.7-10.4,21.6-18.7,35.6-24.7C-779.8-1055.7-764-1058.7-746.6-1058.7z"></path> <path class="st1" d="M-463.7-766.4h65.4v-53.1h1.5c4.4,9.2,10.2,17.6,17.4,25.1c7.3,7.5,15.4,13.9,24.4,19.3 c9,5.3,18.8,9.6,29.4,12.7c10.7,3.1,21.3,4.7,32,4.7s20.4-1.5,29.1-4.4l-2.9-70.5c-5.3,1.5-10.7,2.7-16,3.6 c-5.3,1-10.7,1.5-16,1.5c-32,0-56.5-9-73.4-26.9c-17-17.9-25.4-45.8-25.4-83.6v-173h-65.4L-463.7-766.4L-463.7-766.4z"></path> <path class="st1" d="M-175.8-808.6c18.4,17,39.7,29.7,64,38.2c24.2,8.5,48.5,12.7,72.7,12.7c25.2,0,46.9-3.2,65.1-9.5 s33.1-14.8,44.7-25.4c11.6-10.7,20.2-22.9,25.8-36.7c5.6-13.8,8.4-28.2,8.4-43.3v-176c0-12.1,0.2-23.3,0.7-33.4 c0.5-10.2,1.2-19.9,2.2-29.1H49.6c-1.5,17.4-2.2,34.9-2.2,52.3h-1.5c-14.5-22.3-31.8-38.1-51.6-47.3 c-19.9-9.2-42.9-13.8-69.1-13.8c-16,0-31.3,2.2-45.8,6.5c-14.5,4.4-27.3,10.9-38.2,19.6s-19.5,19.5-25.8,32.4 c-6.3,12.8-9.5,27.7-9.5,44.7c0,22.3,5,41,14.9,56s23.5,27.3,40.7,36.7c17.2,9.5,37.3,16.2,60.3,20.4c23,4.1,47.6,6.2,73.8,6.2 h48v14.5c0,8.7-1.7,17.4-5.1,26.2c-3.4,8.7-8.5,16.6-15.3,23.6S7.9-820.5-2.2-816.4c-10.2,4.1-22.3,6.2-36.4,6.2 c-12.6,0-23.6-1.2-33.1-3.6c-9.5-2.4-18.1-5.5-25.8-9.1c-7.8-3.6-14.8-7.9-21.1-12.7c-6.3-4.9-12.4-9.5-18.2-13.8L-175.8-808.6z M8.9-945.3c-15.5,0-31.4-0.9-47.6-2.5c-16.2-1.7-31-5-44.4-9.8c-13.3-4.9-24.2-11.6-32.7-20.4c-8.5-8.7-12.7-19.9-12.7-33.4 c0-19.9,6.7-34.2,20-42.9s31.4-13.1,54.2-13.1c17.9,0,33.2,3,45.8,9.1c12.6,6.1,22.8,13.9,30.5,23.6s13.3,20.5,16.7,32.4 s5.1,23.6,5.1,35.3v21.8L8.9-945.3L8.9-945.3z"></path> <path class="st1" d="M217.5-766.4h65.4v-53.1h1.5c8.2,18.4,22.5,33.3,42.9,44.7s43.9,17.1,70.5,17.1c16.5,0,32.4-2.5,47.6-7.6 c15.3-5.1,28.6-13,40-23.6c11.4-10.7,20.5-24.4,27.3-41.1c6.8-16.7,10.2-36.5,10.2-59.3v-221.8h-65.4v203.6 c0,16-2.2,29.7-6.5,41.1c-4.4,11.4-10.2,20.6-17.5,27.6s-15.6,12.1-25.1,15.3c-9.5,3.1-19.3,4.7-29.4,4.7 c-13.6,0-26.2-2.2-37.8-6.5c-11.6-4.4-21.8-11.3-30.5-20.7c-8.7-9.5-15.5-21.4-20.4-36c-4.9-14.5-7.3-31.8-7.3-51.6V-1111h-65.4 L217.5-766.4L217.5-766.4z"></path> <path class="st1" d="M984.6-1111.1h-65.4v49.4h-1.5c-12.6-18.4-29.9-32.7-52-42.9c-22.1-10.2-44.7-15.3-68-15.3 c-26.7,0-50.8,4.6-72.3,13.8c-21.6,9.2-40,22.1-55.3,38.5c-15.3,16.5-27,35.6-35.3,57.4c-8.2,21.8-12.4,45.6-12.4,71.3 s4.1,49.6,12.4,71.6c8.2,22.1,20,41.2,35.3,57.4s33.7,29,55.3,38.2s45.7,13.8,72.3,13.8c24.7,0,48-5.2,69.8-15.6 c21.8-10.4,38.5-24.6,50.2-42.5h1.5v254.5h65.4V-1111.1L984.6-1111.1z M805.8-1058.7c17.4,0,33.2,3,47.3,9.1 c14.1,6.1,25.9,14.3,35.6,24.7c9.7,10.4,17.2,23,22.5,37.8s8,30.9,8,48.4c0,17.4-2.7,33.6-8,48.4c-5.3,14.8-12.9,27.4-22.5,37.8 c-9.7,10.4-21.6,18.7-35.6,24.7c-14.1,6.1-29.8,9.1-47.3,9.1s-33.2-3-47.3-9.1s-25.9-14.3-35.6-24.7 c-9.7-10.4-17.2-23-22.5-37.8s-8-30.9-8-48.4s2.7-33.6,8-48.4c5.3-14.8,12.8-27.4,22.5-37.8c9.7-10.4,21.6-18.7,35.6-24.7 C772.5-1055.7,788.3-1058.7,805.8-1058.7z"></path> <path class="st1" d="M1284.2-852.9c-7.8,9.7-17.3,17.8-28.7,24.4c-11.4,6.5-25.3,9.8-41.8,9.8c-15.5,0-29-3.3-40.4-9.8 s-17.1-16.1-17.1-28.7c0-10.2,3.3-18.4,9.8-24.7s14.3-11.4,23.3-15.3c9-3.9,18.5-6.8,28.7-8.7s18.9-3.6,26.2-5.1 c14.1-3.4,27.3-7.5,39.6-12.4c12.4-4.9,23-11.2,32-18.9c9-7.8,16-17.2,21.1-28.4s7.6-24.7,7.6-40.7c0-19.4-4.1-36-12.4-49.8 c-8.2-13.8-18.9-25.1-32-33.8c-13.1-8.7-28-15-44.7-18.9c-16.7-3.9-33.6-5.8-50.5-5.8c-28.6,0-53.7,4.4-75.3,13.1 c-21.6,8.7-40.8,24.7-57.8,48l49.4,40.7c10.7-10.7,22.5-20.1,35.6-28.4c13.1-8.2,29.1-12.4,48-12.4c8.2,0,16.6,0.8,25.1,2.5 s16,4.4,22.5,8c6.5,3.6,11.9,8.2,16,13.8c4.1,5.6,6.2,12,6.2,19.3c0,9.7-3,17.7-9.1,24s-13.3,11.3-21.8,14.9 c-8.5,3.6-17.4,6.5-26.9,8.7s-17.8,4-25.1,5.5c-14.1,3.4-27.4,7.3-40,11.6c-12.6,4.4-23.8,10.2-33.4,17.5 c-9.7,7.3-17.4,16.5-23.3,27.6c-5.8,11.1-8.7,25-8.7,41.4c0,17.9,3.7,33.6,11.3,46.9c7.5,13.3,17.4,24.4,29.8,33.1 c12.4,8.7,26.4,15.3,42.2,19.6c15.7,4.4,31.6,6.5,47.6,6.5c23.3,0,45.6-4.4,66.9-13.1c21.3-8.7,38.3-23.3,50.9-43.6 L1284.2-852.9z"></path> <path class="st1" d="M1644.1-938.7c0,25.2,4.7,48.7,14.2,70.5s22.4,41,38.9,57.4c16.5,16.5,35.9,29.4,58.2,38.9 c22.3,9.5,46.3,14.2,72,14.2s49.7-4.7,72-14.2s41.7-22.4,58.2-38.9s29.4-35.6,38.9-57.4c9.5-21.8,14.2-45.3,14.2-70.5 s-4.7-48.8-14.2-70.9c-9.4-22.1-22.4-41.2-38.9-57.4s-35.9-29.1-58.2-38.5c-22.3-9.5-46.3-14.2-72-14.2s-49.7,4.7-72,14.2 c-22.3,9.4-41.7,22.3-58.2,38.5s-29.4,35.4-38.9,57.4C1648.8-987.6,1644.1-964,1644.1-938.7z M1713.9-938.7 c0-17.5,2.7-33.6,8-48.4c5.3-14.8,12.8-27.4,22.5-37.8c9.7-10.4,21.6-18.7,35.6-24.7c14.1-6.1,29.8-9.1,47.3-9.1 s33.2,3,47.3,9.1c14.1,6.1,25.9,14.3,35.6,24.7c9.7,10.4,17.2,23,22.5,37.8s8,30.9,8,48.4c0,17.4-2.7,33.6-8,48.4 c-5.3,14.8-12.9,27.4-22.5,37.8c-9.7,10.4-21.6,18.7-35.6,24.7c-14.1,6.1-29.8,9.1-47.3,9.1c-17.4,0-33.2-3-47.3-9.1 c-14.1-6.1-25.9-14.3-35.6-24.7s-17.2-23-22.5-37.8C1716.5-905.2,1713.9-921.3,1713.9-938.7z"></path> <path class="st1" d="M2110.1-766.4h65.4v-53.1h1.5c8.2,18.4,22.5,33.3,42.9,44.7s43.9,17.1,70.5,17.1c16.5,0,32.4-2.5,47.6-7.6 c15.3-5.1,28.6-13,40-23.6c11.4-10.7,20.5-24.4,27.3-41.1c6.8-16.7,10.2-36.5,10.2-59.3v-221.8h-65.4v203.6 c0,16-2.2,29.7-6.5,41.1c-4.4,11.4-10.2,20.6-17.4,27.6c-7.3,7-15.6,12.1-25.1,15.3c-9.4,3.1-19.3,4.7-29.4,4.7 c-13.6,0-26.2-2.2-37.8-6.5c-11.6-4.4-21.8-11.3-30.5-20.7c-8.7-9.5-15.5-21.4-20.4-36c-4.9-14.5-7.3-31.8-7.3-51.6V-1111h-65.6 V-766.4L2110.1-766.4z"></path> <path class="st1" d="M2536.9-561.4h65.4v-549.7h-65.4V-561.4z"></path> <path class="st1" d="M2713.6-642.8c0,13.1,4.7,24.4,14.2,33.8c9.4,9.5,20.7,14.2,33.8,14.2s24.4-4.7,33.8-14.2 c9.4-9.5,14.2-20.7,14.2-33.8s-4.7-24.4-14.2-33.8c-9.5-9.5-20.7-14.2-33.8-14.2s-24.4,4.7-33.8,14.2 C2718.3-667.2,2713.6-655.9,2713.6-642.8z M2728.9-766.4h65.4V-1111h-65.4V-766.4z"></path> <path class="st1" d="M2915.7-766.4h65.4v-53.1h1.5c8.2,18.4,22.5,33.3,42.9,44.7s43.9,17.1,70.5,17.1c16.5,0,32.4-2.5,47.6-7.6 c15.3-5.1,28.6-13,40-23.6c11.4-10.7,20.5-24.4,27.3-41.1c6.8-16.7,10.2-36.5,10.2-59.3v-221.8h-65.4v203.6 c0,16-2.2,29.7-6.5,41.1c-4.4,11.4-10.2,20.6-17.4,27.6c-7.3,7-15.6,12.1-25.1,15.3c-9.4,3.1-19.3,4.7-29.4,4.7 c-13.6,0-26.2-2.2-37.8-6.5c-11.6-4.4-21.8-11.3-30.5-20.7s-15.5-21.4-20.4-36c-4.9-14.5-7.3-31.8-7.3-51.6V-1111h-65.4 L2915.7-766.4L2915.7-766.4z"></path> <path class="st1" d="M3386.9-962.7c0-15,3.3-28.7,9.8-41.1c6.5-12.4,15.1-22.9,25.8-31.6c10.7-8.7,23-15.5,37.1-20.4 c14.1-4.9,28.6-7.3,43.6-7.3c20.4,0,38,4.7,53.1,14.2c15,9.4,28.8,21.9,41.4,37.4l49.4-37.8c-36.4-47-87.2-70.5-152.7-70.5 c-27.1,0-51.7,4.6-73.8,13.8s-40.7,21.9-56,38.2c-15.3,16.2-27,35.4-35.3,57.4c-8.2,22.1-12.4,45.9-12.4,71.6 c0,25.7,4.5,49.6,13.4,71.6c9,22.1,21.3,41.2,37.1,57.4c15.7,16.2,34.5,29,56.4,38.2c21.8,9.2,45.6,13.8,71.3,13.8 c30.5,0,56.4-5.3,77.4-16c21.1-10.7,38.4-24.6,52-41.8s23.4-36.6,29.4-58.2c6.1-21.6,9.1-43.5,9.1-65.8v-23.3L3386.9-962.7 L3386.9-962.7L3386.9-962.7z M3593.3-910.4c-0.5,14.5-2.8,27.9-6.9,40c-4.1,12.1-10.3,22.7-18.5,31.6c-8.2,9-18.5,16-30.9,21.1 s-26.8,7.6-43.3,7.6c-16,0-30.7-3-44-9.1s-24.6-13.9-33.8-23.6c-9.2-9.7-16.4-20.5-21.4-32.4c-5.1-11.9-7.6-23.6-7.6-35.3 L3593.3-910.4L3593.3-910.4z"></path> </g> </g> </g> </symbol> <g id="Layer_1_1_" class="st2"> <g id="white_1_" class="st3"> <g id="nbm-logo_x5F_2.0_3_"> <path class="st4" d="M11207.1,1824.2c0,231.4-156.2,419.1-387.7,419.1s-419.2-187.7-419.2-419.1"></path> <path class="st5" d="M10400.2,1824.2"></path> <g> <line class="st6" x1="12660.2" y1="1278.4" x2="12660.2" y2="1269.2"></line> </g> <g> <path class="st7" d="M2201,2240.8v-416.6c0-231.4-187.6-419.1-419.2-419.1c-231.5,0-419.2,187.7-419.2,419.1v416.6"></path> <g> <path class="st8" d="M4444.5,1824.2c0,231.5-187.6,419.2-419.2,419.2c-231.5,0-419.2-187.7-419.2-419.2V1398"></path> <path class="st8" d="M4863.6,1405c231.5,0,419.1,187.7,419.1,419.1c0,231.5-187.6,419.2-419.1,419.2s-419.2-187.7-419.2-419.2"></path> </g> </g> <g> <g> <line class="st9" x1="9292.9" y1="1011.5" x2="9292.9" y2="1824.2"></line> </g> <g> <path class="st10" d="M8873.8,2243.3c231.5,0,419.1-187.7,419.1-419.2"></path> <path class="st11" d="M7328.1,2240.8v-395.1c0-231.5,187.6-419.2,419.1-419.2s419.1,187.7,419.1,419.2v395.1"></path> <line class="st9" x1="4444.5" y1="1105.7" x2="4444.5" y2="1824.2"></line> <line class="st11" x1="4444.5" y1="1105.7" x2="4444.5" y2="1493.7"></line> <path class="st9" d="M4444.5,1824.2c0-231.4,187.6-419.1,419.2-419.1"></path> <g> <path class="st11" d="M5554.4,2240.8v-416.6c0-231.4,187.6-419.1,419.1-419.1"></path> </g> </g> </g> <line class="st7" x1="12660.2" y1="1580.1" x2="12660.2" y2="2239.4"></line> <path class="st7" d="M13815.5,2243.3v-249.1l-6.9-170.1c0-231.4-187.6-419.1-419.1-419.1s-419.2,187.7-419.2,419.1 c0,231.5,187.7,419.2,419.2,419.2H13815.5L13815.5,2243.3z"></path> <line class="st7" x1="12329" y1="1106.2" x2="12329" y2="1746.2"></line> <path class="st7" d="M11490.7,1824.2c0,231.5,187.7,419.2,419.1,419.2c231.5,0,419.1-187.7,419.1-419.2 c0-231.4-187.6-419.1-419.1-419.1C11678.4,1405,11490.7,1592.8,11490.7,1824.2z"></path> <path class="st12" d="M9292.5,1824.7c0-231.5,187.6-419.1,419.2-419.1c231.5,0,419.1,187.6,419.1,419.1V2335"></path> <path class="st12" d="M9292.9,1824.2c0-231.4-187.6-419.1-419.1-419.1s-419.2,187.7-419.2,419.1c0,231.5,187.7,419.2,419.2,419.2 "></path> <path class="st12" d="M10400.2,1824.2c0,231.5,187.7,419.2,419.2,419.2l0,0"></path> <g> <path class="st13" d="M2495.2,1824.2"></path> </g> <path class="st11" d="M7018.7,2243.3v-249.1l-6.9-170.1c0-231.4-187.7-419.1-419.2-419.1s-419.1,187.7-419.1,419.1 c0,231.5,187.6,419.2,419.1,419.2H7018.7L7018.7,2243.3z"></path> <line class="st7" x1="12660.2" y1="1616.8" x2="12660.2" y2="2276"></line> <rect x="2538.1" y="2732.8" class="st14" width="590.7" height="590.7"></rect> <path class="st15" d="M4717.9,3628.4c20.2,20.2-956.9-957-956.9-957"></path> <path class="st0" d="M3626.9,2622.6l-63.8-65.9l0,0l-63.4,66.3l0,0l-63.4,66.3l63.8,65.9l63.8,65.9l63.4-66.3 C3662.3,2718.1,3662.2,2659,3626.9,2622.6z"></path> <line class="st16" x1="4431.4" y1="3209.4" x2="4276.8" y2="3055.6"></line> <g> <path class="st17" d="M3187.9,2100.6l9.7,8.2C3194.6,2105.9,3191.4,2103.1,3187.9,2100.6z"></path> <path class="st17" d="M3075.8,2100.9c1.3-0.9,2.6-1.8,3.9-2.7C3078.3,2099,3077.1,2099.9,3075.8,2100.9z"></path> </g> </g> </g> <g class="st3"> <path d="M10992.7,2099.1c-51.3,32.4-111.1,50-173.3,50v188.5c51.1,0,101.3-7.6,149-22l-96.8-110L10992.7,2099.1z"></path> <path d="M11132,2102.1l-62.2-70.7c-22.3,26.9-48.3,49.6-77,67.7l-121.1,106.5l96.8,110c49.3-14.9,96-37.2,138.7-66.1l16.4-14.4 C11162.5,2200.7,11166.3,2141.2,11132,2102.1z"></path> </g> </g> <g id="Layer_6" class="st2"> <path class="st18" d="M4538.7,1824.2c0,86.8,33.8,168.4,95.2,229.8c61.4,61.4,143,95.2,229.8,95.2s168.4-33.8,229.7-95.2 c61.4-61.4,95.1-143,95.1-229.8s-33.8-168.3-95.1-229.7c-61.4-61.4-143-95.2-229.7-95.2c-86.8,0-168.4,33.8-229.8,95.2 C4572.5,1655.8,4538.7,1737.4,4538.7,1824.2z"></path> <path class="st18" d="M11909.8,1499.3c-86.8,0-168.3,33.8-229.7,95.2c-61.4,61.4-95.2,143-95.2,229.7c0,86.8,33.8,168.4,95.2,229.8 c61.4,61.4,143,95.2,229.7,95.2c86.8,0,168.4-33.8,229.7-95.2c61.4-61.4,95.2-143,95.2-229.8s-33.8-168.3-95.2-229.7 C12078.2,1533.1,11996.6,1499.3,11909.8,1499.3z"></path> <path class="st18" d="M6917.6,1824.2c0-86.7-33.8-168.3-95.2-229.7c-61.4-61.4-143-95.2-229.8-95.2s-168.4,33.8-229.7,95.2 c-61.4,61.4-95.1,142.9-95.1,229.7c0,86.8,33.8,168.4,95.1,229.8c61.4,61.4,142.9,95.2,229.7,95.2h331.9v-152.9l-6.9-170.1V1824.2 L6917.6,1824.2z"></path> <path class="st18" d="M2914.3,1499.3"></path> <path class="st18" d="M9198.5,1812.4c-2.9-82.3-36.4-159.3-94.9-217.9c-61.4-61.4-143-95.2-229.7-95.2 c-86.8,0-168.4,33.8-229.8,95.2c-61.4,61.4-95.2,143-95.2,229.7c0,86.8,33.8,168.4,95.2,229.8c61.4,61.4,143,95.2,229.8,95.2 s168.4-33.8,229.7-95.2c61.2-61.2,95-142.6,95.1-229.2h-0.4C9198.3,1820.6,9198.4,1816.5,9198.5,1812.4z"></path> <path class="st18" d="M10819.4,1499.3c-86.8,0-168.4,33.8-229.8,95.2c-38.5,38.5-66.1,84.8-81.4,135.5h593.4 c-13.1-53.2-37.5-101-71.8-139.2C10976.3,1530.9,10903.5,1499.3,10819.4,1499.3z"></path> <path class="st3" d="M11583.4,2438.9l-145.1-120.3c-62,74.9-153.3,117.8-250.4,117.8v188.5 C11341.3,2624.9,11485.4,2557.1,11583.4,2438.9z"></path> <path class="st3" d="M5226.7,1461.2c-47.1-47.1-102-84.1-163.1-110c-63.4-26.8-130.6-40.4-199.9-40.4v188.5 c86.8,0,168.4,33.8,229.7,95.2c61.4,61.4,95.1,142.9,95.1,229.7c0,86.8-33.8,168.4-95.1,229.8c-61.4,61.4-142.9,95.2-229.7,95.2 c-86.8,0-168.4-33.8-229.8-95.2c-61.4-61.4-95.2-143-95.2-229.8h-188.5c0,69.3,13.6,136.5,40.4,199.9c25.9,61.1,62.9,116,110,163.2 c47.1,47.1,102,84.1,163.2,110c63.4,26.8,130.6,40.4,199.9,40.4s136.5-13.6,199.9-40.4c61.1-25.9,116-62.9,163.1-110 s84.1-102,110-163.2c26.8-63.4,40.4-130.6,40.4-199.9c0-69.2-13.6-136.5-40.4-199.8C5310.8,1563.2,5273.8,1508.3,5226.7,1461.2z"></path> <path class="st19" d="M9387.2,1824.2v-15.3c-0.1,1.2-0.1,2.5-0.1,3.7C9387.1,1816.4,9387.2,1820.3,9387.2,1824.2z"></path> <path class="st19" d="M9386.8,1824.7h-188.1c-0.1,86.6-33.9,168-95.1,229.2c-61.4,61.4-142.9,95.2-229.7,95.2v188.5 c69.3,0,136.5-13.6,199.9-40.4c61.1-25.9,116-62.9,163.1-110s84.1-102,110-163.2c26.8-63.4,40.4-130.6,40.4-199.9h-0.4 C9386.8,1824.3,9386.8,1824.5,9386.8,1824.7z"></path> <path class="st19" d="M4407.7,1588h-57.5v236.2c0-69.2,13.6-136.5,40.4-199.8C4395.9,1612,4401.6,1599.8,4407.7,1588z"></path> <rect x="4350.2" y="1105.7" class="st19" width="188.5" height="94.2"></rect> <path class="st19" d="M4538.7,1824.2c0-86.8,33.8-168.3,95.2-229.7c61.4-61.4,143-95.2,229.8-95.2v-188.5 c-69.3,0-136.5,13.6-199.9,40.4c-45.3,19.2-87.2,44.5-125.1,75.5V1588V1824.2L4538.7,1824.2z"></path> <path class="st19" d="M4538.7,1588h-131c-6.1,11.9-11.9,24-17.1,36.4c-26.8,63.3-40.4,130.6-40.4,199.8h188.5V1588L4538.7,1588z"></path> <path class="st19" d="M4407.7,1588h131v-161.3c-13.2,10.8-25.9,22.3-38.1,34.5C4463,1498.8,4431.9,1541.3,4407.7,1588z"></path> <path class="st19" d="M5773.6,1351.2c-61.1,25.9-116,62.9-163.1,110s-84.1,102-109.9,163.1c-26.8,63.3-40.4,130.6-40.4,199.8v513.1 h188.5v-513.1c0-86.8,33.8-168.3,95.1-229.7c61.4-61.4,142.9-95.2,229.7-95.2h94.2v-188.5h-94.2 C5904.2,1310.8,5837,1324.4,5773.6,1351.2z"></path> <path class="st3" d="M12423.2,1840.4v-16.2c0,5.4-0.1,10.8-0.3,16.2H12423.2z"></path> <path class="st3" d="M12234.7,1824.2c0,86.8-33.8,168.4-95.2,229.8c-61.4,61.4-142.9,95.2-229.7,95.2s-168.3-33.8-229.7-95.2 c-61.4-61.4-95.2-143-95.2-229.8s33.8-168.3,95.2-229.7c61.4-61.4,143-95.2,229.7-95.2c86.8,0,168.4,33.8,229.7,95.2 C12200.9,1655.8,12234.7,1737.4,12234.7,1824.2v-397.5c-37.8-31-79.7-56.3-125-75.5c-63.4-26.8-130.6-40.4-199.9-40.4 c-69.3,0-136.5,13.6-199.8,40.4c-61.1,25.9-116,62.9-163.1,110s-84.1,102-110,163.1c-26.8,63.3-40.4,130.6-40.4,199.8 c0,69.3,13.6,136.5,40.4,199.9c25.9,61.1,62.9,116,110,163.2c47.1,47.1,102,84.1,163.1,110c63.4,26.8,130.6,40.4,199.8,40.4 c69.3,0,136.5-13.6,199.9-40.4c61.1-25.9,116-62.9,163.1-110s84.1-102,110-163.2c24.7-58.4,38.2-120.1,40.1-183.6h-188.2 L12234.7,1824.2L12234.7,1824.2z"></path> <path class="st3" d="M12272.9,1461.2c-12.2-12.2-24.9-23.7-38.1-34.5v397.5v16.2h188.2c0.2-5.4,0.3-10.8,0.3-16.2 c0-69.2-13.6-136.5-40.4-199.8C12357,1563.2,12320,1508.3,12272.9,1461.2z"></path> <path class="st3" d="M9198.5,1812.4c-0.1,4.1-0.1,8.2-0.1,12.3h0.4c0-0.2,0-0.4,0-0.5C9198.7,1820.2,9198.6,1816.3,9198.5,1812.4z"></path> <path class="st3" d="M9348.7,1461.7c-20.5,20.5-39.1,42.5-55.7,65.9c21.3,30.1,39.4,62.4,53.9,96.7c25.3,59.8,38.8,123,40.2,188.2 c0-1.2,0.1-2.5,0.1-3.7v-382C9373.8,1437.8,9361,1449.4,9348.7,1461.7z"></path> <path class="st3" d="M9198.7,1824.7h188.1c0-0.2,0-0.4,0-0.5h-188.1C9198.7,1824.3,9198.7,1824.5,9198.7,1824.7z"></path> <path class="st3" d="M8644,2053.9c-61.4-61.4-95.2-143-95.2-229.8s33.8-168.3,95.2-229.7c61.4-61.4,143-95.2,229.8-95.2 s168.4,33.8,229.7,95.2c58.6,58.6,92,135.6,94.9,217.9c0.1-2.5,0.1-5.1,0.2-7.6v-378.1c-37.8-31-79.7-56.3-125-75.5 c-63.4-26.8-130.6-40.4-199.9-40.4c-69.3,0-136.5,13.6-199.9,40.4c-61.1,25.9-116,62.9-163.2,110c-47.1,47.1-84.1,102-110,163.1 c-26.8,63.3-40.4,130.6-40.4,199.8c0,69.3,13.6,136.5,40.4,199.9c25.9,61.1,62.9,116,110,163.2c47.1,47.1,102,84.1,163.2,110 c63.4,26.8,130.6,40.4,199.9,40.4V2149C8787,2149.1,8705.4,2115.3,8644,2053.9z"></path> <path class="st3" d="M9386.8,1824.2h0.4c0-3.9,0-7.8-0.1-11.6C9386.9,1816.4,9386.8,1820.3,9386.8,1824.2z"></path> <path class="st3" d="M9238.7,1624.9c14.6-34.5,32.7-67,54.2-97.3c-16.7-23.5-35.4-45.7-56.1-66.4c-12.2-12.2-24.9-23.7-38.1-34.5 v378.1C9201.1,1742.5,9214.5,1682.1,9238.7,1624.9z"></path> <path class="st3" d="M9198.7,1804.7c-0.1,2.5-0.2,5.1-0.2,7.6c0.1,3.9,0.2,7.9,0.2,11.8V1804.7z"></path> <path class="st3" d="M9198.7,1804.7v19.4h188.1c0-3.9,0.1-7.8,0.2-11.6c-1.4-65.1-15-128.4-40.2-188.2 c-14.5-34.3-32.5-66.6-53.9-96.7c-21.5,30.2-39.6,62.8-54.2,97.3C9214.5,1682.1,9201.1,1742.5,9198.7,1804.7z"></path> <path class="st18" d="M10306,1918.4h8.6c-5.7-30.9-8.6-62.3-8.6-94.2V1918.4z"></path> <path class="st19" d="M7065.7,1624.3c-25.9-61.1-62.9-116-110-163.1s-102-84.1-163.2-110c-63.4-26.8-130.6-40.4-199.9-40.4 s-136.5,13.6-199.9,40.4c-61.1,25.9-116,62.9-163.1,110s-84.1,102-109.9,163.1c-26.8,63.3-40.4,130.6-40.4,199.8 c0,69.3,13.6,136.5,40.4,199.8c25.9,61.1,62.9,116,110,163.2c47.1,47.1,102,84.1,163.1,110c63.4,26.8,130.6,40.4,199.9,40.4H7113 v-345.2l-6.9-170.2C7105.8,1753.6,7092.2,1687.1,7065.7,1624.3z M6924.5,2149.1h-331.9c-86.8,0-168.4-33.8-229.7-95.2 c-61.4-61.4-95.1-143-95.1-229.8s33.8-168.3,95.1-229.7c61.4-61.4,142.9-95.2,229.7-95.2c86.8,0,168.4,33.8,229.8,95.2 c61.4,61.4,95.2,142.9,95.2,229.7v1.9l6.9,170.1V2149.1L6924.5,2149.1z"></path> <path class="st18" d="M3700.4,1492.2V1398h-94.2C3658.2,1397.9,3700.4,1440.1,3700.4,1492.2z"></path> <path class="st3" d="M3700.4,1586.4v-94.2c0,26-10.5,49.6-27.6,66.6L3700.4,1586.4z"></path> <path class="st3" d="M3606.2,1397.9H3512l0,0l27.6,27.6C3556.6,1408.5,3580.1,1397.9,3606.2,1397.9z"></path> <path class="st3" d="M4350.2,1824.2c0,86.8-33.8,168.4-95.2,229.8c-61.4,61.4-143,95.2-229.8,95.2s-168.4-33.8-229.8-95.2 c-61.4-61.4-95.2-143-95.2-229.8v-237.8H3606h-94.2v237.8c0,69.3,13.6,136.5,40.4,199.9c25.9,61.1,62.9,116,110,163.2 c47.1,47.1,102,84.1,163.2,110c63.4,26.8,130.6,40.4,199.9,40.4c69.3,0,136.5-13.6,199.9-40.4c61.1-25.9,116-62.9,163.2-110 c47.1-47.1,84.1-102,110-163.2c26.8-63.4,40.4-130.6,40.4-199.9L4350.2,1824.2L4350.2,1824.2z"></path> <path class="st3" d="M3511.9,1397.9L3511.9,1397.9v94.2l0,0V1397.9z"></path> <path class="st3" d="M3511.9,1492.2v94.2l0,0V1492.2L3511.9,1492.2z"></path> <path class="st3" d="M3606.2,1586.4h94.2l-27.6-27.6C3655.7,1575.8,3632.2,1586.4,3606.2,1586.4z"></path> <path class="st3" d="M3511.9,1492.2v94.2h94.2C3554.1,1586.4,3511.9,1544.2,3511.9,1492.2z"></path> <path class="st3" d="M3539.5,1425.5l-27.6-27.6v94.2C3511.9,1466.1,3522.5,1442.6,3539.5,1425.5z"></path> <path class="st3" d="M3672.8,1558.8c17.1-17.1,27.6-40.6,27.6-66.6c0-52-42.2-94.2-94.2-94.2c-26,0-49.6,10.5-66.6,27.6 L3672.8,1558.8z"></path> <path class="st3" d="M3511.9,1492.1C3511.9,1492.1,3511.9,1492.2,3511.9,1492.1C3511.9,1492.2,3511.9,1492.2,3511.9,1492.1 L3511.9,1492.1z"></path> <path class="st3" d="M3539.5,1425.5c-17,17-27.6,40.6-27.6,66.6l0,0c0,52,42.2,94.2,94.2,94.2c26,0,49.6-10.6,66.6-27.6 L3539.5,1425.5z"></path> <path class="st19" d="M4444.5,1011.4h-94.2l0,0v94.2l0,0l0,0v94.2V1588h57.5c24.2-46.7,55.3-89.2,92.9-126.8 c12.2-12.2,24.9-23.7,38.1-34.5v-226.8v-94.2C4538.7,1053.6,4496.5,1011.4,4444.5,1011.4z"></path> <path class="st3" d="M9292.9,1011.4h-94.2l0,0v94.2l0,0v94.2l0,0v226.8c13.2,10.8,25.9,22.3,38.1,34.5 c20.7,20.7,39.4,42.9,56.1,66.4c16.6-23.4,35.2-45.4,55.7-65.9c12.3-12.3,25.2-23.9,38.5-34.8v-227v-77.7v-16.6 C9387.2,1053.6,9345,1011.4,9292.9,1011.4z"></path> <path class="st3" d="M12329,1011.4h-94.2l0,0v94.2l0,0v94.2l0,0v226.8c13.2,10.8,25.9,22.3,38.1,34.5c47.1,47.1,84.1,102,110,163.1 c26.8,63.3,40.4,130.6,40.4,199.8v-624.3v-45v-49.3C12423.2,1053.6,12381,1011.4,12329,1011.4z"></path> <path class="st19" d="M12660.2,1184.2h-94.2l0,0v94.2l0,0v94.2h94.2h94.2v-94.2C12754.4,1226.4,12712.2,1184.2,12660.2,1184.2z"></path> <path class="st19" d="M12660.2,2337.6h94.2l0,0v-94.2l0,0v-169.5H12566v169.6C12566,2295.4,12608.2,2337.6,12660.2,2337.6z"></path> <g class="st3"> <path class="st4" d="M13721.3,1996.2l-6.9-170.1v-1.9c0-86.8-33.8-168.3-95.2-229.7c-61.4-61.4-143-95.2-229.7-95.2 c-86.8,0-168.4,33.8-229.8,95.2c-61.4,61.4-95.2,143-95.2,229.7c0,86.8,33.8,168.4,95.2,229.8c61.4,61.4,143,95.2,229.8,95.2 h256.5h75.3L13721.3,1996.2L13721.3,1996.2z"></path> <path d="M13902.8,1822.2c-0.3-68.5-13.8-135.1-40.4-197.8c-25.9-61.1-62.9-116-110-163.1s-102-84.1-163.1-110 c-63.4-26.8-130.6-40.4-199.9-40.4c-69.3,0-136.5,13.6-199.9,40.4c-61.1,25.9-116,62.9-163.2,110c-47.1,47.1-84.1,102-110,163.1 c-26.8,63.3-40.4,130.6-40.4,199.8c0,69.3,13.6,136.5,40.4,199.9c25.9,61.1,62.9,116,110,163.2c47.1,47.1,102,84.1,163.2,110 c63.4,26.8,130.6,40.4,199.9,40.4h256.5v-188.5h-256.5c-86.8,0-168.4-33.8-229.8-95.2c-61.4-61.4-95.2-143-95.2-229.8 s33.8-168.3,95.2-229.7c61.4-61.4,143-95.2,229.8-95.2s168.4,33.8,229.7,95.2c61.4,61.4,95.2,142.9,95.2,229.7v1.9l6.9,170.1 v152.9h94.2l0,0h94.2l0,0v-156.8L13902.8,1822.2z"></path> <path d="M13815.5,2149.1L13815.5,2149.1h-94.3h-75.3v188.5h169.6c52,0,94.2-42.2,94.2-94.2v-94.2l0,0L13815.5,2149.1 L13815.5,2149.1z"></path> </g> <path class="st3" d="M5973.5,1310.8h-94.2l0,0v94.2l0,0v94.2h94.2h94.2V1405C6067.7,1353,6025.5,1310.8,5973.5,1310.8z"></path> <path class="st3" d="M10184.7,1624.9c-25.9-61.1-62.9-116-110-163.2c-47.1-47.1-102-84.1-163.1-110 c-63.4-26.8-130.6-40.4-199.9-40.4c-69.3,0-136.5,13.6-199.9,40.4c-45.2,19.1-86.9,44.3-124.7,75.1v382 c3.9-80.8,37.2-156.3,94.8-213.9c61.4-61.4,143-95.2,229.8-95.2s168.4,33.8,229.7,95.2c61.4,61.4,95.1,142.9,95.1,229.7v324.1l0,0 v94.2c0,52,42.2,94.2,94.2,94.2h94.2l0,0V2243l0,0v-24.1v-70.1v-324.1C10225.1,1755.4,10211.5,1688.2,10184.7,1624.9z"></path> <path class="st3" d="M8220.2,1645.8c-25.9-61.2-62.9-116-110-163.2c-47.1-47.1-102-84.1-163.1-110 c-63.4-26.8-130.6-40.4-199.9-40.4s-136.5,13.6-199.9,40.4c-61.1,25.9-116,62.9-163.1,110s-84.1,102-110,163.2 c-26.8,63.4-40.4,130.6-40.4,199.9v303.1v60.4v33.8c0,52,42.2,94.2,94.2,94.2h94.2l0,0V2243l0,0v-33.8v-60.4v-303.1 c0-86.8,33.8-168.4,95.2-229.8c61.4-61.4,142.9-95.2,229.7-95.2c86.8,0,168.4,33.8,229.7,95.2c61.4,61.4,95.2,143,95.2,229.8v235.2 l0,0v162.5c0,52,42.2,94.2,94.2,94.2h94.2l0,0v-94.2l0,0v-145.1V2081v-235.2C8260.5,1776.4,8247,1709.2,8220.2,1645.8z"></path> <polygon class="st3" points="12754.4,2088.9 12754.4,1522.5 12754.4,1485.9 12566,1485.9 12566,1522.5 12566,2088.9 "></polygon> <path class="st3" d="M2254.8,1624.3c-25.9-61.1-62.9-116-110-163.1s-102-84.1-163.2-110c-63.4-26.8-130.6-40.4-199.9-40.4 s-136.5,13.6-199.9,40.4c-61.1,25.9-116,62.9-163.2,110c-47.1,47.1-84.1,102-110,163.1c-26.8,63.3-40.4,130.6-40.4,199.8V2149v51.3 v43c0,52,42.2,94.2,94.2,94.2h94.2l0,0v-94.2l0,0v-94.2l0,0v-324.9c0-86.8,33.8-168.3,95.2-229.7c61.4-61.4,143-95.2,229.8-95.2 s168.4,33.8,229.8,95.2c61.4,61.4,95.2,143,95.2,229.7v324.9v21.3v72.9c0,52,42.2,94.2,94.2,94.2h94.2l0,0v-94.2l0,0v-72.9v-21.3 v-324.9C2295.2,1754.9,2281.6,1687.7,2254.8,1624.3z"></path> <g class="st3"> <path d="M11140.6,2213.6l-12.3,11.1C11132.5,2221.1,11136.6,2217.4,11140.6,2213.6z"></path> <path class="st4" d="M11075.6,2272l52.7-47.3c-18.1,15.6-37.2,29.8-57.2,42.3L11075.6,2272z"></path> <path class="st0" d="M11140.6,2213.6l5.1-4.6c2.8-2.5,5.4-5.1,7.8-7.9C11149.3,2205.4,11145,2209.6,11140.6,2213.6z"></path> <path class="st0" d="M11002.6,2084.2c3.8-3.2,7.5-6.5,11.1-9.9L11002.6,2084.2z"></path> </g> <path class="st19" d="M3396.3,1918.4v-94.2c0-137.3-46.6-264.9-131.1-359.2c-89.1-99.4-213.7-154.1-350.9-154.1 c-69.3,0-136.5,13.6-199.8,40.4c-61.1,25.9-116,62.9-163.1,110s-84.1,102-110,163.1c-14.5,34.2-25.1,69.5-31.8,105.6 c-5.7,30.9-8.6,62.3-8.6,94.2c0,31.9,2.9,63.4,8.6,94.2l0,0c0,0.1,0.1,0.3,0.1,0.4c0.3,1.8,0.7,3.6,1,5.4c0.1,0.4,0.2,0.8,0.2,1.2 c0.4,1.9,0.8,3.9,1.2,5.8c0.1,0.3,0.1,0.5,0.2,0.8c0.9,4.4,1.9,8.8,3,13.2c0.2,0.7,0.3,1.3,0.5,2c0.4,1.4,0.7,2.9,1.1,4.3 c0.3,1.1,0.6,2.2,0.9,3.3c0.3,1,0.5,2,0.8,3.1c0.3,1.3,0.7,2.5,1,3.8c0.2,0.8,0.5,1.7,0.7,2.5c0.4,1.4,0.8,2.8,1.2,4.1 c0.2,0.7,0.4,1.4,0.6,2.1c0.4,1.5,0.9,2.9,1.3,4.4c0.2,0.6,0.4,1.1,0.5,1.7c0.5,1.6,1,3.2,1.5,4.7c0.1,0.4,0.3,0.9,0.4,1.3 c0.6,1.7,1.1,3.4,1.7,5.1c0.1,0.3,0.2,0.6,0.3,0.9c0.6,1.8,1.2,3.6,1.9,5.5c0,0.1,0.1,0.2,0.1,0.3c3.5,10,7.4,20,11.5,29.8 c25.9,61.1,62.9,116,110,163.2c47.1,47.1,102,84.1,163.1,110c63.4,26.8,130.6,40.4,199.8,40.4l0,0c74.9,0,146.1-16.3,209.8-47.4 c29.6-14.4,57.6-32,83.6-52.6c38.2-32.6,44.3-89.8,13-129.8l-58.1-74.2l-9.8-12.5l-27.9,36.5c-11.3,12.6-23.4,23.9-36.4,34 c-48.4,37.7-107.8,57.5-174.2,57.5c-86.8,0-168.3-33.8-229.7-95.2c-38.4-38.5-66.1-84.9-81.4-135.5h593.4L3396.3,1918.4 L3396.3,1918.4z M2684.6,1594.5c61.4-61.4,142.9-95.2,229.7-95.2c84.1,0,156.9,31.6,210.6,91.5c34.3,38.2,58.7,86,71.8,139.2 h-593.4C2618.5,1679.3,2646.1,1632.9,2684.6,1594.5z"></path> <g class="st3"> <path class="st4" d="M10819.4,1499.3c-86.8,0-168.4,33.8-229.8,95.2c-38.5,38.5-66.1,84.8-81.4,135.5h593.4 c-13.1-53.2-37.5-101-71.8-139.2C10976.3,1530.9,10903.5,1499.3,10819.4,1499.3z"></path> <path class="st0" d="M10508.3,1918.4L10508.3,1918.4c-3-10-5.5-20.1-7.6-30.4C10502.7,1898.2,10505.3,1908.4,10508.3,1918.4z"></path> <path d="M11276.3,1654.6c-21.9-71.1-57.8-135.8-106-189.7c-89.1-99.4-213.7-154.1-350.9-154.1c-69.3,0-136.5,13.6-199.9,40.4 c-61.1,25.9-116,62.9-163.2,110c-47.1,47.1-84.1,102-110,163.1c-26.8,63.4-40.4,130.6-40.4,199.8c0,2.1,0,4.2,0,6.2 c0,0.7,0,1.5,0,2.2c0,1.3,0,2.7,0.1,4c0,0.9,0,1.8,0.1,2.6c0,1.2,0.1,2.4,0.1,3.5c0,1,0.1,1.9,0.1,2.9c0,1.1,0.1,2.2,0.1,3.2 s0.1,2.1,0.2,3.1c0.1,1,0.1,2,0.2,3c0.1,1.1,0.1,2.2,0.2,3.2c0.1,1,0.1,1.9,0.2,2.9c0.1,1.1,0.2,2.3,0.3,3.4 c0.1,0.9,0.1,1.8,0.2,2.6c0.1,1.2,0.2,2.4,0.3,3.6c0.1,0.8,0.1,1.6,0.2,2.4c0.1,1.2,0.2,2.5,0.4,3.7c0.1,0.7,0.2,1.4,0.2,2.1 c0.1,1.3,0.3,2.7,0.4,4c0.1,0.6,0.1,1.1,0.2,1.7c0.2,1.5,0.3,3,0.5,4.5c0,0.2,0,0.4,0.1,0.5c0.9,7.4,2,14.7,3.3,22 c0.1,0.3,0.1,0.7,0.2,1c0.3,1.5,0.5,2.9,0.8,4.4c0.1,0.4,0.1,0.8,0.2,1.3l0,0c6.7,36.1,17.3,71.4,31.8,105.6 c25.9,61.1,62.9,116,110,163.1s102,84.1,163.2,110c63.4,26.8,130.6,40.4,199.9,40.4c91.8,0,178-24.5,251.7-70.5 c20.1-12.5,39.2-26.6,57.2-42.3l12.3-11.1c4.4-4.1,8.6-8.2,12.9-12.4c31.2-35.4,31.7-89.3-0.6-125.2l-63-70.1l0,0l-70.1,62.9l0,0 l-6.1,5.5c-3.6,3.4-7.3,6.7-11.1,9.9c-50,42.5-112.6,64.8-183.2,64.8c-86.8,0-168.4-33.8-229.8-95.2 c-38.5-38.5-66.1-84.8-81.4-135.5h604.6h94.2c52,0,94.2-42.2,94.2-94.2C11301.4,1765.2,11292.8,1708.1,11276.3,1654.6z M10508.3,1729.9c15.3-50.6,42.9-97,81.4-135.5c61.4-61.4,143-95.2,229.8-95.2c84.1,0,156.9,31.6,210.5,91.4 c34.3,38.2,58.7,86,71.8,139.2L10508.3,1729.9L10508.3,1729.9z"></path> </g> </g> <g id="Layer_7" class="st2"> <path class="st18" d="M4538.7,1824.2c0,86.8,33.8,168.4,95.2,229.8c61.4,61.4,143,95.2,229.8,95.2s168.4-33.8,229.7-95.2 c61.4-61.4,95.1-143,95.1-229.8s-33.8-168.3-95.1-229.7c-61.4-61.4-143-95.2-229.7-95.2c-86.8,0-168.4,33.8-229.8,95.2 C4572.5,1655.8,4538.7,1737.4,4538.7,1824.2z"></path> <path class="st18" d="M11909.8,1499.3c-86.8,0-168.3,33.8-229.7,95.2c-61.4,61.4-95.2,143-95.2,229.7c0,86.8,33.8,168.4,95.2,229.8 c61.4,61.4,143,95.2,229.7,95.2c86.8,0,168.4-33.8,229.7-95.2c61.4-61.4,95.2-143,95.2-229.8s-33.8-168.3-95.2-229.7 C12078.2,1533.1,11996.6,1499.3,11909.8,1499.3z"></path> <path class="st18" d="M2914.3,1499.3"></path> <path class="st18" d="M9198.5,1812.4c-2.9-82.3-36.4-159.3-94.9-217.9c-61.4-61.4-143-95.2-229.7-95.2 c-86.8,0-168.4,33.8-229.8,95.2c-61.4,61.4-95.2,143-95.2,229.7c0,86.8,33.8,168.4,95.2,229.8c61.4,61.4,143,95.2,229.8,95.2 s168.4-33.8,229.7-95.2c61.2-61.2,95-142.6,95.1-229.2h-0.4C9198.3,1820.6,9198.4,1816.5,9198.5,1812.4z"></path> <path class="st18" d="M10819.4,1499.3c-86.8,0-168.4,33.8-229.8,95.2c-38.5,38.5-66.1,84.8-81.4,135.5h593.4 c-13.1-53.2-37.5-101-71.8-139.2C10976.3,1530.9,10903.5,1499.3,10819.4,1499.3z"></path> <path class="st3" d="M12423.2,1840.4v-16.2c0,5.4-0.1,10.8-0.3,16.2H12423.2z"></path> <path class="st19" d="M9386.8,1824.2h-188.1c0,0.2,0,0.4,0,0.5c-0.1,86.6-33.9,168-95.1,229.2c-61.4,61.4-142.9,95.2-229.7,95.2 v188.5c69.3,0,136.5-13.6,199.9-40.4c61.1-25.9,116-62.9,163.1-110s84.1-102,110-163.2c26.8-63.4,40.4-130.6,40.4-199.9 L9386.8,1824.2L9386.8,1824.2z"></path> <path class="st18" d="M10306,1918.4h8.6c-5.7-30.9-8.6-62.3-8.6-94.2V1918.4z"></path> <path class="st19" d="M4663.8,1351.2c-45.3,19.2-87.2,44.5-125.1,75.5v-226.8v-94.2c0-52-42.2-94.2-94.2-94.2h-94.2l0,0v94.2l0,0 l0,0v94.2V1588v236.2h188.5c0-86.8,33.8-168.3,95.2-229.7c61.4-61.4,143-95.2,229.8-95.2v-188.5 C4794.4,1310.8,4727.1,1324.4,4663.8,1351.2z"></path> <path class="st19" d="M9292.9,1011.4h-94.2l0,0v94.2l0,0v94.2l0,0v226.8c13.2,10.8,25.9,22.3,38.1,34.5 c20.7,20.7,39.4,42.9,56.1,66.4c16.6-23.4,35.2-45.4,55.7-65.9c12.3-12.3,25.2-23.9,38.5-34.8v-227v-77.7v-16.6 C9387.2,1053.6,9345,1011.4,9292.9,1011.4z"></path> <path class="st19" d="M12660.2,1184.2h-94.2l0,0v94.2l0,0v94.2h94.2h94.2v-94.2C12754.4,1226.4,12712.2,1184.2,12660.2,1184.2z"></path> <path class="st19" d="M5973.5,1310.8c-31.9,0-63.4,2.9-94.2,8.6c-36.1,6.7-71.5,17.3-105.6,31.8c-61.1,25.9-116,62.9-163.1,110 s-84.1,102-109.9,163.1c-26.8,63.3-40.4,130.6-40.4,199.8v513.1h188.5v-513.1c0-86.8,33.8-168.3,95.1-229.7 c61.4-61.4,142.9-95.2,229.7-95.2h94.2V1405C6067.7,1353,6025.5,1310.8,5973.5,1310.8z"></path> <g class="st3"> <path d="M11140.6,2213.6l-12.3,11.1C11132.5,2221.1,11136.6,2217.4,11140.6,2213.6z"></path> <path class="st4" d="M11075.6,2272l52.7-47.3c-18.1,15.6-37.2,29.8-57.2,42.3L11075.6,2272z"></path> <path class="st0" d="M11140.6,2213.6l5.1-4.6c2.8-2.5,5.4-5.1,7.8-7.9C11149.3,2205.4,11145,2209.6,11140.6,2213.6z"></path> <path class="st0" d="M11002.6,2084.2c3.8-3.2,7.5-6.5,11.1-9.9L11002.6,2084.2z"></path> </g> </g> <g> <g id="master"> <g> <g> <defs> <rect id="SVGID_1_" y="6.2" width="216.2" height="44"></rect> </defs> <clipPath id="SVGID_00000021837715703007997230000000742214195431190971_"> <use xlink:href="#SVGID_1_" style="overflow:visible;"></use> </clipPath> <g style="clip-path:url(#SVGID_00000021837715703007997230000000742214195431190971_);"> <g> <defs> <rect id="SVGID_00000025411834543615188030000008638329184970232983_" x="0" y="6.2" width="216.2" height="44"></rect> </defs> <clipPath id="SVGID_00000106129904166236723470000007003671237573015741_"> <use xlink:href="#SVGID_00000025411834543615188030000008638329184970232983_" style="overflow:visible;"></use> </clipPath> <g style="clip-path:url(#SVGID_00000106129904166236723470000007003671237573015741_);"> <use xlink:href="#_x33_.0_Curved_logo" width="12641.4" height="2571.2" id="XMLID_1_" x="-6320.7" y="-1285.6" transform="matrix(1.710000e-02 0 0 -1.710000e-02 108.0812 28.1446)" style="overflow:visible;"></use> </g> </g> </g> </g> </g> </g> </g> </svg> 