<svg id="Layer_1" data-name="Layer 1" xmlns="http://www.w3.org/2000/svg" viewBox="0 0 1948.26 945.48"><defs><style>.cls-1{fill:#111b60;}.cls-2{fill:#36d5f5;}</style></defs><path class="cls-1" d="M1134.89,666.26l167.19,400.84a44.27,44.27,0,0,1-40.86,61.32h0a50,50,0,0,1-46.16-30.76L1072.74,756.45a8.78,8.78,0,0,0-16.2,0L913.6,1099.13a47.61,47.61,0,0,1-43.94,29.29h0a45.35,45.35,0,0,1-41.85-62.8L994.35,666.35a76.23,76.23,0,0,1,70.34-46.87h0A76.05,76.05,0,0,1,1134.89,666.26Z" transform="translate(-17.4 -463.76)"/><path class="cls-1" d="M1478.53,946.72h104.71c65.27,0,118.36-51.54,118.36-114.89s-53.09-112.7-118.36-112.7H1429.15a48.92,48.92,0,0,1-48.91-48.92h0a50,50,0,0,1,50-50h153c120.2,0,218,94.91,218,211.58s-97.79,211.59-218,211.59h-94.32a10.39,10.39,0,0,0-10.39,10.39v25.73a48.89,48.89,0,0,1-48.88,48.88h0a50.74,50.74,0,0,1-50.74-50.74v-92a38.94,38.94,0,0,1,38.94-38.94Z" transform="translate(-17.4 -463.76)"/><path class="cls-1" d="M1917,620.25h0A48.71,48.71,0,0,1,1965.66,669v410.62a48.84,48.84,0,0,1-48.83,48.84h0a50.79,50.79,0,0,1-50.78-50.78V671.14A50.89,50.89,0,0,1,1917,620.25Z" transform="translate(-17.4 -463.76)"/><path class="cls-2" d="M937.65,1332.27V1290h99.83v86.53q-28.66,19-50.7,25.81t-52.27,6.86q-37.21,0-60.68-12.33t-36.36-36.68q-12.91-24.36-12.91-55.93,0-33.22,14.12-57.79T880,1209.2q21.26-9.84,57.19-9.83,34.66,0,51.85,6.09a67.39,67.39,0,0,1,28.51,18.89q11.36,12.81,17.05,32.46l-62.32,10.81a32.81,32.81,0,0,0-13-17.58q-9.19-6.09-23.46-6.1-21.25,0-33.87,14.33t-12.62,45.34q0,32.94,12.76,47.06t35.58,14.13a69.59,69.59,0,0,0,20.68-3,113.25,113.25,0,0,0,22.53-10.38v-19.1Z" transform="translate(-17.4 -463.76)"/><path class="cls-2" d="M1076.7,1405.77V1202.83h107.68q29.94,0,45.78,5a48.68,48.68,0,0,1,25.52,18.48q9.69,13.5,9.7,32.88,0,16.89-7.42,29.14a57.26,57.26,0,0,1-20.4,19.87q-8.28,4.85-22.69,8,11.54,3.74,16.81,7.48,3.57,2.49,10.34,10.67t9,12.61l31.28,58.8h-73l-34.53-62q-6.57-12-11.69-15.65a27.68,27.68,0,0,0-15.83-4.7h-5.71v82.36Zm64.89-120.71h27.24q4.43,0,17.11-2.77a17.14,17.14,0,0,0,10.49-6.37,18.39,18.39,0,0,0,4.06-11.77q0-9.81-6.42-15.09t-24.1-5.26h-28.38Z" transform="translate(-17.4 -463.76)"/><path class="cls-2" d="M1289.91,1304.44q0-49.7,28.52-77.39t79.44-27.68q52.2,0,80.43,27.2t28.23,76.21q0,35.58-12.33,58.35a86.59,86.59,0,0,1-35.65,35.44q-23.31,12.66-58.12,12.67-35.37,0-58.54-10.94t-37.58-34.61Q1289.91,1340,1289.91,1304.44Zm64.6.27q0,30.74,11.77,44.17t32,13.42q20.84,0,32.23-13.15t11.41-47.21q0-28.64-11.91-41.87t-32.3-13.22q-19.53,0-31.37,13.43T1354.51,1304.71Z" transform="translate(-17.4 -463.76)"/><path class="cls-2" d="M1677.39,1202.83h64.46v120.91a99.36,99.36,0,0,1-5.77,34,73.2,73.2,0,0,1-18.12,28q-12.33,12-25.88,16.81-18.82,6.76-45.21,6.78a293.58,293.58,0,0,1-33.3-2.08q-18-2.09-30.17-8.23a75.34,75.34,0,0,1-22.17-17.5q-10.05-11.36-13.76-23.38-6-19.36-6-34.31V1202.83h64.46v123.79q0,16.59,9.48,25.93t26.32,9.34q16.68,0,26.17-9.2t9.48-26.07Z" transform="translate(-17.4 -463.76)"/><path class="cls-2" d="M1784.36,1202.83h107.38q35.09,0,52.55,16.19t17.47,46.1q0,30.74-19,48t-58.12,17.3h-35.37v75.31h-64.88Zm64.88,86.52h15.83q18.67,0,26.24-6.3a20.05,20.05,0,0,0,7.56-16.13,22.18,22.18,0,0,0-6.56-16.19q-6.55-6.64-24.67-6.65h-18.4Z" transform="translate(-17.4 -463.76)"/><path class="cls-1" d="M403.59,1041.42H720.66a46.71,46.71,0,0,1,29.83,10.92,392.67,392.67,0,0,0,14.75-363.68,46.88,46.88,0,0,1-11.72,18.05Z" transform="translate(-17.4 -463.76)"/><path class="cls-1" d="M242.32,1106.13a47.15,47.15,0,0,1,11.18-51.64l349.93-334.7h-317a47.15,47.15,0,0,1,0-94.3H720.94a47.8,47.8,0,0,1,7.11.53C656.67,527.73,540.9,463.76,410.13,463.76,193.24,463.76,17.4,639.59,17.4,856.49s175.84,392.73,392.73,392.73a391.42,391.42,0,0,0,276.1-113.5H286.09A47.18,47.18,0,0,1,242.32,1106.13Z" transform="translate(-17.4 -463.76)"/></svg>